<?xml version="1.0" encoding="UTF-8" standalone="no"?>
<!DOCTYPE svg PUBLIC "-//W3C//DTD SVG 1.1//EN" "http://www.w3.org/Graphics/SVG/1.1/DTD/svg11.dtd">
<!-- Создано Microsoft Visio, экспорт SVG Кинотеатр.svg Page-1 -->
<svg xmlns="http://www.w3.org/2000/svg" xmlns:xlink="http://www.w3.org/1999/xlink" xmlns:ev="http://www.w3.org/2001/xml-events"
		xmlns:v="http://schemas.microsoft.com/visio/2003/SVGExtensions/" width="8.26772in" height="11.6929in"
		viewBox="0 0 595.276 841.89" xml:space="preserve" color-interpolation-filters="sRGB" class="st10">
	<v:documentProperties v:langID="1049" v:metric="true" v:viewMarkup="false">
		<v:userDefs>
			<v:ud v:nameU="msvNoAutoConnect" v:prompt="" v:val="VT0(0):26"/>
			<v:ud v:nameU="visV14CFF" v:prompt="" v:val="VT0(1):26"/>
			<v:ud v:nameU="visFlowchartType" v:prompt="" v:val="VT4(CrossFunctional)"/>
		</v:userDefs>
	</v:documentProperties>

	<style type="text/css">
	<![CDATA[
		.st1 {fill:#80ff80;stroke:#000000;stroke-linecap:round;stroke-linejoin:round;stroke-width:0.5}
		.st2 {fill:#000000;font-family:Calibri;font-size:0.666664em}
		.st3 {font-size:1em}
		.st4 {fill:#ff8080;stroke:#000000;stroke-linecap:round;stroke-linejoin:round;stroke-width:0.5}
		.st5 {fill:#e6e6e6;stroke:#000000;stroke-linecap:round;stroke-linejoin:round;stroke-width:0.5}
		.st6 {marker-end:url(#mrkr4-36);stroke:#000000;stroke-linecap:round;stroke-linejoin:round;stroke-width:0.5}
		.st7 {fill:#000000;fill-opacity:1;stroke:#000000;stroke-opacity:1;stroke-width:0.16556291390728}
		.st8 {fill:#ffff80}
		.st9 {stroke:#000000;stroke-linecap:round;stroke-linejoin:round;stroke-width:0.5}
		.st10 {fill:none;fill-rule:evenodd;font-size:12px;overflow:visible;stroke-linecap:square;stroke-miterlimit:3}
	]]>
	</style>

	<defs id="Markers">
		<g id="lend4">
			<path d="M 2 1 L 0 0 L 2 -1 L 2 1 " style="stroke:none"/>
		</g>
		<marker id="mrkr4-36" class="st7" v:arrowType="4" v:arrowSize="2" v:setback="12.08" refX="-12.08" orient="auto"
				markerUnits="strokeWidth" overflow="visible">
			<use xlink:href="#lend4" transform="scale(-6.04,-6.04) "/>
		</marker>
	</defs>
	<g v:mID="0" v:index="1" v:groupContext="foregroundPage">
		<v:userDefs>
			<v:ud v:nameU="msvThemeOrder" v:val="VT0(0):26"/>
		</v:userDefs>
		<title>Страница-1</title>
		<v:pageProperties v:drawingScale="0.0393701" v:pageScale="0.0393701" v:drawingUnits="24" v:shadowOffsetX="8.50394"
				v:shadowOffsetY="-8.50394"/>
		<v:layer v:name="Блок-схема" v:index="0"/>
		<v:layer v:name="Соединительная линия" v:index="1"/>
		<v:layer v:name="Контейнер" v:index="2"/>
		<g id="shape24-1" v:mID="24" v:groupContext="shape" v:layerMember="0" transform="translate(201.215,-733.045)">
			<title>Функция.24</title>
			<desc>Планировка сеанса</desc>
			<v:userDefs>
				<v:ud v:nameU="visVersion" v:prompt="" v:val="VT0(15):26"/>
			</v:userDefs>
			<v:textBlock v:margins="rect(2,2,2,2)" v:tabSpace="42.5197"/>
			<v:textRect cx="23.9284" cy="825.738" width="47.86" height="32.3034"/>
			<rect x="0" y="809.586" width="47.8568" height="32.3034" rx="5.9821" ry="5.9821" class="st1"/>
			<text x="3.29" y="823.34" class="st2" v:langID="1049"><v:paragraph v:horizAlign="1"/><v:tabList/>Планировка <tspan
						x="12.58" dy="1.2em" class="st3">сеанса</tspan></text>		</g>
		<g id="shape25-5" v:mID="25" v:groupContext="shape" v:layerMember="0" transform="translate(201.215,-688.547)">
			<title>Событие.25</title>
			<desc>Сеанс запланирован</desc>
			<v:userDefs>
				<v:ud v:nameU="visVersion" v:prompt="" v:val="VT0(15):26"/>
			</v:userDefs>
			<v:textBlock v:margins="rect(2,2,2,2)" v:tabSpace="42.5197"/>
			<v:textRect cx="23.9284" cy="825.738" width="47.86" height="32.3034"/>
			<path d="M4.99 841.89 L42.87 841.89 L47.86 826.14 L42.87 809.59 L4.99 809.59 L0 826.14 L4.99 841.89 Z" class="st4"/>
			<text x="14.06" y="818.54" class="st2" v:langID="1049"><v:paragraph v:horizAlign="1"/><v:tabList/>Сеанс <tspan x="3.85"
						dy="1.2em" class="st3">запланиров</tspan><tspan x="19.87" dy="1.2em" class="st3">ан</tspan></text>		</g>
		<g id="shape26-10" v:mID="26" v:groupContext="shape" v:layerMember="0" transform="translate(201.215,-462.603)">
			<title>Функция.26</title>
			<desc>Продажа билетов</desc>
			<v:userDefs>
				<v:ud v:nameU="visVersion" v:prompt="" v:val="VT0(15):26"/>
			</v:userDefs>
			<v:textBlock v:margins="rect(2,2,2,2)" v:tabSpace="42.5197"/>
			<v:textRect cx="23.9284" cy="825.738" width="47.86" height="32.3034"/>
			<rect x="0" y="809.586" width="47.8568" height="32.3034" rx="5.9821" ry="5.9821" class="st1"/>
			<text x="8.41" y="823.34" class="st2" v:langID="1049"><v:paragraph v:horizAlign="1"/><v:tabList/>Продажа <tspan
						x="10.03" dy="1.2em" class="st3">билетов</tspan></text>		</g>
		<g id="shape27-14" v:mID="27" v:groupContext="shape" v:layerMember="0" transform="translate(213.179,-417.256)">
			<title>Исключающее ИЛИ</title>
			<desc>XOR</desc>
			<v:userDefs>
				<v:ud v:nameU="visVersion" v:prompt="" v:val="VT0(15):26"/>
			</v:userDefs>
			<v:textBlock v:margins="rect(2,2,2,2)" v:tabSpace="42.5197"/>
			<v:textRect cx="11.9642" cy="829.926" width="23.93" height="23.9284"/>
			<ellipse cx="11.9642" cy="829.926" rx="11.9642" ry="11.9642" class="st5"/>
			<text x="5.07" y="832.33" class="st2" v:langID="1049"><v:paragraph v:horizAlign="1"/><v:tabList/>XOR</text>		</g>
		<g id="shape28-17" v:mID="28" v:groupContext="shape" v:layerMember="0" transform="translate(104.939,-370.457)">
			<title>Событие.28</title>
			<desc>Все билеты распроданы</desc>
			<v:userDefs>
				<v:ud v:nameU="visVersion" v:prompt="" v:val="VT0(15):26"/>
			</v:userDefs>
			<v:textBlock v:margins="rect(2,2,2,2)" v:tabSpace="42.5197"/>
			<v:textRect cx="23.9284" cy="825.738" width="47.86" height="32.3034"/>
			<path d="M4.99 841.89 L42.87 841.89 L47.86 826.14 L42.87 809.59 L4.99 809.59 L0 826.14 L4.99 841.89 Z" class="st4"/>
			<text x="4.63" y="823.34" class="st2" v:langID="1049"><v:paragraph v:horizAlign="1"/><v:tabList/>Все билеты <tspan
						x="2.98" dy="1.2em" class="st3">распроданы</tspan></text>		</g>
		<g id="shape29-21" v:mID="29" v:groupContext="shape" v:layerMember="0" transform="translate(201.215,-370.457)">
			<title>Событие.29</title>
			<desc>Распродана часть билетов</desc>
			<v:userDefs>
				<v:ud v:nameU="visVersion" v:prompt="" v:val="VT0(15):26"/>
			</v:userDefs>
			<v:textBlock v:margins="rect(2,2,2,2)" v:tabSpace="42.5197"/>
			<v:textRect cx="23.9284" cy="825.738" width="47.86" height="32.3034"/>
			<path d="M4.99 841.89 L42.87 841.89 L47.86 826.14 L42.87 809.59 L4.99 809.59 L0 826.14 L4.99 841.89 Z" class="st4"/>
			<text x="3.76" y="818.54" class="st2" v:langID="1049"><v:paragraph v:horizAlign="1"/><v:tabList/>Распродана <tspan
						x="15.02" dy="1.2em" class="st3">часть </tspan><tspan x="10.03" dy="1.2em" class="st3">билетов</tspan></text>		</g>
		<g id="shape30-26" v:mID="30" v:groupContext="shape" v:layerMember="0" transform="translate(297.491,-371.98)">
			<title>Событие.30</title>
			<desc>Не продано ни одного билета</desc>
			<v:userDefs>
				<v:ud v:nameU="visVersion" v:prompt="" v:val="VT0(15):26"/>
			</v:userDefs>
			<v:textBlock v:margins="rect(2,2,2,2)" v:tabSpace="42.5197"/>
			<v:textRect cx="23.9284" cy="825.738" width="47.86" height="32.3034"/>
			<path d="M4.99 841.89 L42.87 841.89 L47.86 826.14 L42.87 809.59 L4.99 809.59 L0 826.14 L4.99 841.89 Z" class="st4"/>
			<text x="3.85" y="818.54" class="st2" v:langID="1049"><v:paragraph v:horizAlign="1"/><v:tabList/>Не продано <tspan
						x="6.64" dy="1.2em" class="st3">ни одного </tspan><tspan x="12.14" dy="1.2em" class="st3">билета</tspan></text>		</g>
		<g id="shape31-31" v:mID="31" v:groupContext="shape" v:layerMember="1" transform="translate(213.179,-429.22)">
			<title>Динамическая соединительная линия.31</title>
			<path d="M0 841.89 L-84.31 841.89 L-84.31 862.31" class="st6"/>
		</g>
		<g id="shape32-37" v:mID="32" v:groupContext="shape" v:layerMember="1" transform="translate(218.057,-417.256)">
			<title>Динамическая соединительная линия.32</title>
			<path d="M7.09 841.89 L7.09 850.35" class="st6"/>
		</g>
		<g id="shape33-42" v:mID="33" v:groupContext="shape" v:layerMember="1" transform="translate(237.108,-429.22)">
			<title>Динамическая соединительная линия.33</title>
			<path d="M0 841.89 L84.31 841.89 L84.31 860.79" class="st6"/>
		</g>
		<g id="shape35-47" v:mID="35" v:groupContext="shape" v:layerMember="1" transform="translate(218.057,-734.034)">
			<title>Динамическая соединительная линия.14.35</title>
			<v:userDefs>
				<v:ud v:nameU="visVersion" v:val="VT0(15):26"/>
			</v:userDefs>
			<path d="M7.09 842.88 L7.09 849.03" class="st6"/>
		</g>
		<g id="shape36-52" v:mID="36" v:groupContext="shape" v:layerMember="1" transform="translate(218.057,-599.964)">
			<title>Динамическая соединительная линия.14.36</title>
			<v:userDefs>
				<v:ud v:nameU="visVersion" v:val="VT0(15):26"/>
			</v:userDefs>
			<path d="M7.09 842.3 L7.09 849.61" class="st6"/>
		</g>
		<g id="shape37-57" v:mID="37" v:groupContext="shape" v:layerMember="1" transform="translate(218.057,-462.603)">
			<title>Динамическая соединительная линия.14.37</title>
			<v:userDefs>
				<v:ud v:nameU="visVersion" v:val="VT0(15):26"/>
			</v:userDefs>
			<path d="M7.09 841.89 L7.09 857.27" class="st6"/>
		</g>
		<g id="shape39-62" v:mID="39" v:groupContext="shape" v:layerMember="0" transform="translate(161.887,-342.591)">
			<title>Исключающее ИЛИ.39</title>
			<desc>XOR</desc>
			<v:userDefs>
				<v:ud v:nameU="visVersion" v:prompt="" v:val="VT0(15):26"/>
			</v:userDefs>
			<v:textBlock v:margins="rect(2,2,2,2)" v:tabSpace="42.5197"/>
			<v:textRect cx="11.9642" cy="829.926" width="23.93" height="23.9284"/>
			<ellipse cx="11.9642" cy="829.926" rx="11.9642" ry="11.9642" class="st5"/>
			<text x="5.07" y="832.33" class="st2" v:langID="1049"><v:paragraph v:horizAlign="1"/><v:tabList/>XOR</text>		</g>
		<g id="shape40-65" v:mID="40" v:groupContext="shape" v:layerMember="1" transform="translate(128.867,-370.457)">
			<title>Динамическая соединительная линия.40</title>
			<path d="M0 841.89 L0 857.79 L26.98 857.79" class="st6"/>
		</g>
		<g id="shape41-70" v:mID="41" v:groupContext="shape" v:layerMember="1" transform="translate(225.143,-370.457)">
			<title>Динамическая соединительная линия.41</title>
			<path d="M0 841.89 L0 857.79 L-33.29 857.79" class="st6"/>
		</g>
		<g id="shape43-75" v:mID="43" v:groupContext="shape" v:layerMember="0" transform="translate(201.215,-644.049)">
			<title>Функция.43</title>
			<desc>Выбор фильма</desc>
			<v:userDefs>
				<v:ud v:nameU="visVersion" v:prompt="" v:val="VT0(15):26"/>
			</v:userDefs>
			<v:textBlock v:margins="rect(2,2,2,2)" v:tabSpace="42.5197"/>
			<v:textRect cx="23.9284" cy="825.738" width="47.86" height="32.3034"/>
			<rect x="0" y="809.586" width="47.8568" height="32.3034" rx="5.9821" ry="5.9821" class="st1"/>
			<text x="12.75" y="823.34" class="st2" v:langID="1049"><v:paragraph v:horizAlign="1"/><v:tabList/>Выбор <tspan
						x="10.73" dy="1.2em" class="st3">фильма</tspan></text>		</g>
		<g id="shape44-79" v:mID="44" v:groupContext="shape" v:layerMember="0" transform="translate(201.215,-599.551)">
			<title>Событие.44</title>
			<desc>Фильм выбран</desc>
			<v:userDefs>
				<v:ud v:nameU="visVersion" v:prompt="" v:val="VT0(15):26"/>
			</v:userDefs>
			<v:textBlock v:margins="rect(2,2,2,2)" v:tabSpace="42.5197"/>
			<v:textRect cx="23.9284" cy="825.738" width="47.86" height="32.3034"/>
			<path d="M4.99 841.89 L42.87 841.89 L47.86 826.14 L42.87 809.59 L4.99 809.59 L0 826.14 L4.99 841.89 Z" class="st4"/>
			<text x="12.35" y="823.34" class="st2" v:langID="1049"><v:paragraph v:horizAlign="1"/><v:tabList/>Фильм <tspan
						x="11.06" dy="1.2em" class="st3">выбран</tspan></text>		</g>
		<g id="shape45-83" v:mID="45" v:groupContext="shape" v:layerMember="1" transform="translate(218.057,-645.038)">
			<title>Динамическая соединительная линия.45</title>
			<path d="M7.09 842.88 L7.09 849.03" class="st6"/>
		</g>
		<g id="shape46-88" v:mID="46" v:groupContext="shape" v:layerMember="1" transform="translate(218.057,-689.536)">
			<title>Динамическая соединительная линия.46</title>
			<path d="M7.09 842.88 L7.09 849.03" class="st6"/>
		</g>
		<g id="shape48-93" v:mID="48" v:groupContext="shape" v:layerMember="0" transform="translate(149.922,-295.792)">
			<title>Функция.48</title>
			<desc>Обновление информации в БД</desc>
			<v:userDefs>
				<v:ud v:nameU="visVersion" v:prompt="" v:val="VT0(15):26"/>
			</v:userDefs>
			<v:textBlock v:margins="rect(2,2,2,2)" v:tabSpace="42.5197"/>
			<v:textRect cx="23.9284" cy="825.738" width="47.86" height="32.3034"/>
			<rect x="0" y="809.586" width="47.8568" height="32.3034" rx="5.9821" ry="5.9821" class="st1"/>
			<text x="2.66" y="818.54" class="st2" v:langID="1049"><v:paragraph v:horizAlign="1"/><v:tabList/>Обновление <tspan
						x="3.97" dy="1.2em" class="st3">информаци</tspan><tspan x="13.32" dy="1.2em" class="st3">и в БД</tspan></text>		</g>
		<g id="shape49-98" v:mID="49" v:groupContext="shape" v:layerMember="1" transform="translate(166.764,-342.591)">
			<title>Динамическая соединительная линия.49</title>
			<path d="M7.09 841.89 L7.09 850.35" class="st6"/>
		</g>
		<g id="shape50-103" v:mID="50" v:groupContext="shape" v:layerMember="0" transform="translate(149.922,-248.993)">
			<title>Событие.50</title>
			<desc>Информация обновлена</desc>
			<v:userDefs>
				<v:ud v:nameU="visVersion" v:prompt="" v:val="VT0(15):26"/>
			</v:userDefs>
			<v:textBlock v:margins="rect(2,2,2,2)" v:tabSpace="42.5197"/>
			<v:textRect cx="23.9284" cy="825.738" width="47.86" height="32.3034"/>
			<path d="M4.99 841.89 L42.87 841.89 L47.86 826.14 L42.87 809.59 L4.99 809.59 L0 826.14 L4.99 841.89 Z" class="st4"/>
			<text x="3.57" y="823.34" class="st2" v:langID="1049"><v:paragraph v:horizAlign="1"/><v:tabList/>Информаци<tspan
						x="2.64" dy="1.2em" class="st3">я обновлена</tspan></text>		</g>
		<g id="shape51-107" v:mID="51" v:groupContext="shape" v:layerMember="1" transform="translate(166.764,-295.792)">
			<title>Динамическая соединительная линия.51</title>
			<path d="M7.09 841.89 L7.09 850.35" class="st6"/>
		</g>
		<g id="shape52-112" v:mID="52" v:groupContext="shape" v:layerMember="0" transform="translate(297.491,-325.18)">
			<title>Функция.52</title>
			<desc>Обновление информации в БД</desc>
			<v:userDefs>
				<v:ud v:nameU="visVersion" v:prompt="" v:val="VT0(15):26"/>
			</v:userDefs>
			<v:textBlock v:margins="rect(2,2,2,2)" v:tabSpace="42.5197"/>
			<v:textRect cx="23.9284" cy="825.738" width="47.86" height="32.3034"/>
			<rect x="0" y="809.586" width="47.8568" height="32.3034" rx="5.9821" ry="5.9821" class="st1"/>
			<text x="2.66" y="818.54" class="st2" v:langID="1049"><v:paragraph v:horizAlign="1"/><v:tabList/>Обновление <tspan
						x="3.97" dy="1.2em" class="st3">информаци</tspan><tspan x="13.32" dy="1.2em" class="st3">и в БД</tspan></text>		</g>
		<g id="shape53-117" v:mID="53" v:groupContext="shape" v:layerMember="1" transform="translate(328.506,-371.98)">
			<title>Динамическая соединительная линия.53</title>
			<path d="M-7.09 841.89 L-7.09 850.35" class="st6"/>
		</g>
		<g id="shape54-122" v:mID="54" v:groupContext="shape" v:layerMember="0" transform="translate(297.491,-278.381)">
			<title>Событие.54</title>
			<desc>Информация обновлена</desc>
			<v:userDefs>
				<v:ud v:nameU="visVersion" v:prompt="" v:val="VT0(15):26"/>
			</v:userDefs>
			<v:textBlock v:margins="rect(2,2,2,2)" v:tabSpace="42.5197"/>
			<v:textRect cx="23.9284" cy="825.738" width="47.86" height="32.3034"/>
			<path d="M4.99 841.89 L42.87 841.89 L47.86 826.14 L42.87 809.59 L4.99 809.59 L0 826.14 L4.99 841.89 Z" class="st4"/>
			<text x="3.57" y="823.34" class="st2" v:langID="1049"><v:paragraph v:horizAlign="1"/><v:tabList/>Информаци<tspan
						x="2.64" dy="1.2em" class="st3">я обновлена</tspan></text>		</g>
		<g id="shape55-126" v:mID="55" v:groupContext="shape" v:layerMember="1" transform="translate(314.333,-325.18)">
			<title>Динамическая соединительная линия.55</title>
			<path d="M7.09 841.89 L7.09 850.35" class="st6"/>
		</g>
		<g id="shape56-131" v:mID="56" v:groupContext="shape" v:layerMember="0" transform="translate(149.276,-201.321)">
			<title>Функция.56</title>
			<desc>Показ фильма</desc>
			<v:userDefs>
				<v:ud v:nameU="visVersion" v:prompt="" v:val="VT0(15):26"/>
			</v:userDefs>
			<v:textBlock v:margins="rect(2,2,2,2)" v:tabSpace="42.5197"/>
			<v:textRect cx="24.5744" cy="825.302" width="49.15" height="33.1755"/>
			<rect x="0" y="808.714" width="49.1489" height="33.1755" rx="6.14361" ry="6.14361" class="st1"/>
			<text x="14.52" y="822.9" class="st2" v:langID="1049"><v:paragraph v:horizAlign="1"/><v:tabList/>Показ <tspan x="11.38"
						dy="1.2em" class="st3">фильма</tspan></text>		</g>
		<g id="shape57-135" v:mID="57" v:groupContext="shape" v:layerMember="1" transform="translate(166.764,-248.993)">
			<title>Динамическая соединительная линия.57</title>
			<path d="M7.09 841.89 L7.09 850.35" class="st6"/>
		</g>
		<g id="shape58-140" v:mID="58" v:groupContext="shape" v:layerMember="0" transform="translate(149.88,-154.522)">
			<title>Событие.58</title>
			<desc>Фильм показан</desc>
			<v:userDefs>
				<v:ud v:nameU="visVersion" v:prompt="" v:val="VT0(15):26"/>
			</v:userDefs>
			<v:textBlock v:margins="rect(2,2,2,2)" v:tabSpace="42.5197"/>
			<v:textRect cx="23.9284" cy="825.738" width="47.86" height="32.3034"/>
			<path d="M4.99 841.89 L42.87 841.89 L47.86 826.14 L42.87 809.59 L4.99 809.59 L0 826.14 L4.99 841.89 Z" class="st4"/>
			<text x="12.35" y="823.34" class="st2" v:langID="1049"><v:paragraph v:horizAlign="1"/><v:tabList/>Фильм <tspan
						x="10.22" dy="1.2em" class="st3">показан</tspan></text>		</g>
		<g id="shape59-144" v:mID="59" v:groupContext="shape" v:layerMember="1" transform="translate(180.916,-201.321)">
			<title>Динамическая соединительная линия.59</title>
			<path d="M-7.07 841.89 L-7.07 847.33 L-7.11 847.33 L-7.11 850.35" class="st6"/>
		</g>
		<g id="shape60-149" v:mID="60" v:groupContext="shape" v:layerMember="0" transform="translate(297.034,-230.709)">
			<title>Функция.60</title>
			<desc>Сеанс отменяется</desc>
			<v:userDefs>
				<v:ud v:nameU="visVersion" v:prompt="" v:val="VT0(15):26"/>
			</v:userDefs>
			<v:textBlock v:margins="rect(2,2,2,2)" v:tabSpace="42.5197"/>
			<v:textRect cx="24.5744" cy="825.302" width="49.15" height="33.1755"/>
			<rect x="0" y="808.714" width="49.1489" height="33.1755" rx="6.14361" ry="6.14361" class="st1"/>
			<text x="14.71" y="822.9" class="st2" v:langID="1049"><v:paragraph v:horizAlign="1"/><v:tabList/>Сеанс <tspan x="5.06"
						dy="1.2em" class="st3">отменяется</tspan></text>		</g>
		<g id="shape62-153" v:mID="62" v:groupContext="shape" v:layerMember="0" transform="translate(297.491,-183.91)">
			<title>Событие.62</title>
			<desc>Сеанс отменён</desc>
			<v:userDefs>
				<v:ud v:nameU="visVersion" v:prompt="" v:val="VT0(15):26"/>
			</v:userDefs>
			<v:textBlock v:margins="rect(2,2,2,2)" v:tabSpace="42.5197"/>
			<v:textRect cx="23.9284" cy="825.738" width="47.86" height="32.3034"/>
			<path d="M4.99 841.89 L42.87 841.89 L47.86 826.14 L42.87 809.59 L4.99 809.59 L0 826.14 L4.99 841.89 Z" class="st4"/>
			<text x="14.06" y="823.34" class="st2" v:langID="1049"><v:paragraph v:horizAlign="1"/><v:tabList/>Сеанс <tspan x="9.31"
						dy="1.2em" class="st3">отменён</tspan></text>		</g>
		<g id="shape63-157" v:mID="63" v:groupContext="shape" v:layerMember="1" transform="translate(314.427,-278.381)">
			<title>Динамическая соединительная линия.63</title>
			<path d="M6.99 841.89 L6.99 847.33 L7.18 847.33 L7.18 850.35" class="st6"/>
		</g>
		<g id="shape64-162" v:mID="64" v:groupContext="shape" v:layerMember="1" transform="translate(328.6,-230.709)">
			<title>Динамическая соединительная линия.14.64</title>
			<v:userDefs>
				<v:ud v:nameU="visVersion" v:val="VT0(15):26"/>
			</v:userDefs>
			<path d="M-6.99 841.89 L-6.99 847.33 L-7.18 847.33 L-7.18 850.35" class="st6"/>
		</g>
		<g id="shape68-167" v:mID="68" v:groupContext="shape" v:layerMember="1" transform="translate(197.737,-163.603)">
			<title>Динамическая соединительная линия.68</title>
			<path d="M0 834.82 L18 834.82 L18 834.79 L37.17 834.79" class="st6"/>
		</g>
		<g id="shape69-172" v:mID="69" v:groupContext="shape" v:layerMember="1" transform="translate(321.419,-184.394)">
			<title>Динамическая соединительная линия.69</title>
			<path d="M0 842.37 L0 855.58 L-46.09 855.58" class="st6"/>
		</g>
		<g id="shape70-177" v:mID="70" v:groupContext="shape" v:layerMember="0" transform="translate(233.858,-111.047)">
			<title>Функция.70</title>
			<desc>Завершение сеанса</desc>
			<v:userDefs>
				<v:ud v:nameU="visVersion" v:prompt="" v:val="VT0(15):26"/>
			</v:userDefs>
			<v:textBlock v:margins="rect(2,2,2,2)" v:tabSpace="42.5197"/>
			<v:textRect cx="21.2598" cy="827.539" width="42.52" height="28.7008"/>
			<rect x="0" y="813.189" width="42.5197" height="28.7008" rx="5.31496" ry="5.31496" class="st1"/>
			<text x="2.24" y="825.14" class="st2" v:langID="1049"><v:paragraph v:horizAlign="1"/><v:tabList/>Завершени<tspan
						x="7.02" dy="1.2em" class="st3">е сеанса</tspan></text>		</g>
		<g id="shape80-181" v:mID="80" v:groupContext="shape" v:layerMember="0" transform="translate(240.945,-156.532)">
			<title>Исключающее ИЛИ.80</title>
			<desc>XOR</desc>
			<v:userDefs>
				<v:ud v:nameU="visVersion" v:prompt="" v:val="VT0(15):26"/>
			</v:userDefs>
			<v:textBlock v:margins="rect(2,2,2,2)" v:tabSpace="42.5197"/>
			<v:textRect cx="14.1732" cy="827.717" width="28.35" height="28.3465"/>
			<ellipse cx="14.1732" cy="827.717" rx="14.1732" ry="14.1732" class="st5"/>
			<text x="7.28" y="830.12" class="st2" v:langID="1049"><v:paragraph v:horizAlign="1"/><v:tabList/>XOR</text>		</g>
		<g id="shape85-184" v:mID="85" v:groupContext="shape" v:layerMember="1" transform="translate(248.032,-156.532)">
			<title>Динамическая соединительная линия.14.85</title>
			<v:userDefs>
				<v:ud v:nameU="visVersion" v:val="VT0(15):26"/>
			</v:userDefs>
			<path d="M7.09 841.89 L7.09 852.63" class="st6"/>
		</g>
		<g id="shape86-189" v:mID="86" v:groupContext="shape" v:layerMember="0" transform="translate(201.215,-553.901)">
			<title>Функция.86</title>
			<desc>Выбор зала</desc>
			<v:userDefs>
				<v:ud v:nameU="visVersion" v:prompt="" v:val="VT0(15):26"/>
			</v:userDefs>
			<v:textBlock v:margins="rect(2,2,2,2)" v:tabSpace="42.5197"/>
			<v:textRect cx="23.9284" cy="825.738" width="47.86" height="32.3034"/>
			<rect x="0" y="809.586" width="47.8568" height="32.3034" rx="5.9821" ry="5.9821" class="st1"/>
			<text x="4.28" y="828.14" class="st2" v:langID="1049"><v:paragraph v:horizAlign="1"/><v:tabList/>Выбор зала</text>		</g>
		<g id="shape87-192" v:mID="87" v:groupContext="shape" v:layerMember="1" transform="translate(218.057,-554.315)">
			<title>Динамическая соединительная линия.87</title>
			<v:userDefs>
				<v:ud v:nameU="visVersion" v:val="VT0(15):26"/>
			</v:userDefs>
			<path d="M7.09 842.3 L7.09 849.61" class="st6"/>
		</g>
		<g id="shape88-197" v:mID="88" v:groupContext="shape" v:layerMember="0" transform="translate(201.215,-508.252)">
			<title>Событие.88</title>
			<desc>Зал выбран</desc>
			<v:userDefs>
				<v:ud v:nameU="visVersion" v:prompt="" v:val="VT0(15):26"/>
			</v:userDefs>
			<v:textBlock v:margins="rect(2,2,2,2)" v:tabSpace="42.5197"/>
			<v:textRect cx="23.9284" cy="825.738" width="47.86" height="32.3034"/>
			<path d="M4.99 841.89 L42.87 841.89 L47.86 826.14 L42.87 809.59 L4.99 809.59 L0 826.14 L4.99 841.89 Z" class="st4"/>
			<text x="4.31" y="828.14" class="st2" v:langID="1049"><v:paragraph v:horizAlign="1"/><v:tabList/>Зал выбран</text>		</g>
		<g id="shape89-200" v:mID="89" v:groupContext="shape" v:layerMember="1" transform="translate(218.057,-508.666)">
			<title>Динамическая соединительная линия.89</title>
			<v:userDefs>
				<v:ud v:nameU="visVersion" v:val="VT0(15):26"/>
			</v:userDefs>
			<path d="M7.09 842.3 L7.09 849.61" class="st6"/>
		</g>
		<g id="shape90-205" v:mID="90" v:groupContext="shape" v:layerMember="0" transform="translate(201.215,-777.543)">
			<title>Событие.90</title>
			<desc>Нужда в проведении сеанса</desc>
			<v:userDefs>
				<v:ud v:nameU="visVersion" v:prompt="" v:val="VT0(15):26"/>
			</v:userDefs>
			<v:textBlock v:margins="rect(2,2,2,2)" v:tabSpace="42.5197"/>
			<v:textRect cx="23.9284" cy="825.738" width="47.86" height="32.3034"/>
			<path d="M4.99 841.89 L42.87 841.89 L47.86 826.14 L42.87 809.59 L4.99 809.59 L0 826.14 L4.99 841.89 Z" class="st4"/>
			<text x="9.9" y="818.54" class="st2" v:langID="1049"><v:paragraph v:horizAlign="1"/><v:tabList/>Нужда в <tspan x="3.04"
						dy="1.2em" class="st3">проведении </tspan><tspan x="12.58" dy="1.2em" class="st3">сеанса</tspan></text>		</g>
		<g id="shape91-210" v:mID="91" v:groupContext="shape" v:layerMember="1" transform="translate(218.057,-778.533)">
			<title>Динамическая соединительная линия</title>
			<path d="M7.09 842.88 L7.09 849.03" class="st6"/>
		</g>
		<g id="shape92-215" v:mID="92" v:groupContext="shape" v:layerMember="0" transform="translate(231.19,-68.8819)">
			<title>Событие.92</title>
			<desc>Сеанс проведён</desc>
			<v:userDefs>
				<v:ud v:nameU="visVersion" v:prompt="" v:val="VT0(15):26"/>
			</v:userDefs>
			<v:textBlock v:margins="rect(2,2,2,2)" v:tabSpace="42.5197"/>
			<v:textRect cx="23.9284" cy="825.738" width="47.86" height="32.3034"/>
			<path d="M4.99 841.89 L42.87 841.89 L47.86 826.14 L42.87 809.59 L4.99 809.59 L0 826.14 L4.99 841.89 Z" class="st4"/>
			<text x="14.06" y="823.34" class="st2" v:langID="1049"><v:paragraph v:horizAlign="1"/><v:tabList/>Сеанс <tspan x="7.37"
						dy="1.2em" class="st3">проведён</tspan></text>		</g>
		<g id="shape93-219" v:mID="93" v:groupContext="shape" v:layerMember="1" transform="translate(248.032,-113.203)">
			<title>Динамическая соединительная линия.93</title>
			<path d="M7.09 844.05 L7.09 847.87" class="st6"/>
		</g>
		<g id="shape95-224" v:mID="95" v:groupContext="shape" v:layerMember="1" transform="translate(249.072,-742.11)">
			<title>Динамическая соединительная линия.95</title>
			<path d="M0 834.8 L30.88 834.8" class="st6"/>
		</g>
		<g id="shape94-229" v:mID="94" v:groupContext="shape" v:layerMember="0" transform="translate(285.986,-731.48)">
			<title>Подразделение</title>
			<desc>Менеджер</desc>
			<v:userDefs>
				<v:ud v:nameU="visVersion" v:prompt="" v:val="VT0(15):26"/>
			</v:userDefs>
			<v:textBlock v:margins="rect(2,2,2,2)" v:tabSpace="42.5197"/>
			<v:textRect cx="39.8622" cy="824.173" width="62.01" height="35.4331"/>
			<path d="M70.87 824.17 A35.4331 17.7165 -180 1 0 0 824.17 A35.4331 17.7165 -180 1 0 70.87 824.17 Z" class="st8"/>
			<path d="M70.87 824.17 A35.4331 17.7165 -180 1 0 0 824.17 A35.4331 17.7165 -180 1 0 70.87 824.17" class="st9"/>
			<path d="M8.86 812.57 L8.86 835.8" class="st9"/>
			<text x="21.24" y="826.57" class="st2" v:langID="1049"><v:paragraph v:horizAlign="1"/><v:tabList/>Менеджер</text>		</g>
	</g>
</svg>
